<svg width="148" height="148" viewBox="0 0 148 148" fill="none" xmlns="http://www.w3.org/2000/svg">
<path d="M74 111L56.2906 145.85L56.8052 106.762L24.9289 129.39L43.5496 95.0184L4.8088 100.241L37.2698 78.4599L0.539543 65.0803L39.4044 60.8796L13.0992 31.9632L49.4645 46.3051L39.6105 8.47625L65.1453 38.0752L74 0L82.8547 38.0752L108.39 8.47625L98.5355 46.3051L134.901 31.9632L108.596 60.8796L147.46 65.0803L110.73 78.4599L143.191 100.241L104.45 95.0184L123.071 129.39L91.1948 106.762L91.7094 145.85L74 111Z" fill="#EF6D58"/>
<path d="M72 90H63C61.3431 90 60 88.6569 60 87V72H72V90ZM88 87C88 88.6569 86.6569 90 85 90H76V72H88V87ZM79 58C81.7614 58 84 60.2386 84 63V63.0117C84 63.1517 83.9998 63.552 83.9238 64H88C89.1046 64 90 64.8954 90 66V68C90 69.1046 89.1046 70 88 70H60C58.8954 70 58 69.1046 58 68V66C58 64.8954 58.8954 64 60 64H64.0762C64.0233 63.6734 63.9978 63.3426 64 63.0117V63C64 60.2386 66.2386 58 69 58C71.7614 58 74 60.2386 74 63C74 60.2386 76.2386 58 79 58ZM70.5 60.4023C69.5718 59.8664 68.4282 59.8664 67.5 60.4023C66.5719 60.9383 66 61.9283 66 63C66 63.17 66.0038 63.5484 66.0898 63.8604C66.1018 63.9079 66.1172 63.9546 66.1357 64H72V63C72 61.9283 71.4281 60.9383 70.5 60.4023ZM79 60C77.3431 60 76 61.3431 76 63V64H81.8643C81.8826 63.9545 81.8979 63.9078 81.9102 63.8604C81.9962 63.5484 82 63.17 82 63C82 61.3431 80.6569 60 79 60Z" fill="white"/>
</svg>
