<svg width="47" height="34" viewBox="0 0 47 34" fill="none" xmlns="http://www.w3.org/2000/svg">
<g clip-path="url(#clip0_0_158)">
<rect opacity="0.236348" width="47" height="32" rx="6" fill="#570B00"/>
<path d="M13.616 10.16V22H12.256V11.64C12.2133 11.6987 12.08 11.776 11.856 11.872C11.6373 11.968 11.3653 12.0613 11.04 12.152C10.72 12.2373 10.3787 12.2987 10.016 12.336V11.104C10.3733 11.0453 10.7093 10.9627 11.024 10.856C11.344 10.7493 11.616 10.6347 11.84 10.512C12.064 10.384 12.2133 10.2667 12.288 10.16H13.616ZM17.6497 22.208C17.3884 22.208 17.1671 22.12 16.9858 21.944C16.8098 21.7627 16.7218 21.5413 16.7218 21.28C16.7218 21.024 16.8098 20.8053 16.9858 20.624C17.1671 20.4427 17.3884 20.352 17.6497 20.352C17.9058 20.352 18.1244 20.4427 18.3058 20.624C18.4871 20.8053 18.5778 21.024 18.5778 21.28C18.5778 21.5413 18.4871 21.7627 18.3058 21.944C18.1244 22.12 17.9058 22.208 17.6497 22.208ZM17.6578 15.744C17.3964 15.744 17.1751 15.656 16.9938 15.48C16.8178 15.2987 16.7298 15.0773 16.7298 14.816C16.7298 14.56 16.8178 14.3413 16.9938 14.16C17.1751 13.9787 17.3964 13.888 17.6578 13.888C17.9138 13.888 18.1324 13.9787 18.3138 14.16C18.4951 14.3413 18.5858 14.56 18.5858 14.816C18.5858 15.0773 18.4951 15.2987 18.3138 15.48C18.1324 15.656 17.9138 15.744 17.6578 15.744ZM24.9588 22V19.344H20.2228V18.248L24.4308 10.16H26.2948V18.144H27.8868V19.344H26.2948V22H24.9588ZM21.4068 18.88L20.9588 18.144H24.9588V11.104L25.3028 11.184L21.4068 18.88ZM36.2334 11.392H31.6254L31.2094 15.28C31.2254 15.216 31.2787 15.1307 31.3694 15.024C31.4654 14.9173 31.604 14.808 31.7854 14.696C31.972 14.584 32.204 14.4907 32.4814 14.416C32.7587 14.3413 33.084 14.304 33.4574 14.304C34.428 14.304 35.164 14.6507 35.6654 15.344C36.172 16.0373 36.4254 16.952 36.4254 18.088C36.4254 18.9627 36.2894 19.704 36.0174 20.312C35.7507 20.92 35.364 21.3813 34.8574 21.696C34.3507 22.0053 33.7374 22.16 33.0174 22.16C32.436 22.16 31.9294 22.0747 31.4974 21.904C31.0707 21.728 30.7187 21.4827 30.4414 21.168C30.1694 20.8533 29.964 20.4853 29.8254 20.064C29.692 19.6427 29.6254 19.1813 29.6254 18.68C29.6254 18.6747 29.6254 18.672 29.6254 18.672C29.6254 18.6667 29.6254 18.6613 29.6254 18.656H30.9774C30.9774 18.6613 30.9774 18.6667 30.9774 18.672C30.9774 18.672 30.9774 18.6747 30.9774 18.68C30.9827 19.4853 31.164 20.0667 31.5214 20.424C31.884 20.7813 32.388 20.96 33.0334 20.96C33.4494 20.96 33.8067 20.856 34.1054 20.648C34.4094 20.44 34.6414 20.1253 34.8014 19.704C34.9667 19.2827 35.0494 18.752 35.0494 18.112C35.0494 17.2587 34.892 16.6107 34.5774 16.168C34.268 15.7253 33.812 15.504 33.2094 15.504C32.82 15.504 32.4787 15.5813 32.1854 15.736C31.892 15.8853 31.6494 16.0693 31.4574 16.288C31.2707 16.5067 31.1374 16.7147 31.0574 16.912L29.7454 16.576L30.4734 10.2H36.2334V11.392Z" fill="white"/>
</g>
<defs>
<clipPath id="clip0_0_158">
<rect width="47" height="34" fill="white"/>
</clipPath>
</defs>
</svg>
